<?xml version="1.0" standalone="no"?>
<!DOCTYPE svg PUBLIC "-//W3C//DTD SVG 20010904//EN"
 "http://www.w3.org/TR/2001/REC-SVG-20010904/DTD/svg10.dtd">
<svg version="1.0" xmlns="http://www.w3.org/2000/svg"
 width="91.000000pt" height="84.000000pt" viewBox="0 0 91.000000 84.000000"
 preserveAspectRatio="xMidYMid meet">

<g transform="translate(0.000000,84.000000) scale(0.100000,-0.100000)"
fill="#000000" stroke="none">
<path d="M0 420 l0 -420 455 0 455 0 0 420 0 420 -455 0 -455 0 0 -420z m547
319 c42 -16 82 -58 114 -120 l28 -57 -90 -7 c-50 -4 -92 -5 -95 -2 -3 3 4 20
15 38 26 43 27 75 2 89 -33 17 -59 11 -96 -21 -39 -35 -57 -84 -75 -211 -20
-138 8 -190 89 -168 38 10 81 49 81 75 0 15 -37 48 -74 67 -28 15 -27 15 49
21 43 4 98 7 122 7 43 0 43 0 28 -23 -12 -20 -14 -39 -6 -113 5 -49 8 -90 8
-91 -1 0 -23 -4 -49 -8 l-48 -7 0 42 0 42 -30 -30 c-16 -17 -46 -36 -66 -42
-72 -24 -177 14 -221 81 -26 39 -28 50 -28 138 0 107 17 154 79 219 66 71 190
109 263 81z m267 -462 c11 -8 17 -23 14 -38 -2 -20 -9 -24 -45 -27 -35 -3 -44
1 -54 19 -10 20 -9 25 11 41 26 21 49 23 74 5z"/>
</g>
</svg>
